<svg width="24" height="24" viewBox="0 0 24 24" fill="none" xmlns="http://www.w3.org/2000/svg">
<g clip-path="url(#clip0_100_184)">
<path opacity="0.5" d="M0 7.45249V18.6855C0 20.1269 0 20.8483 0.377333 21.3915C0.754667 21.9346 1.41467 22.1626 2.73467 22.6187L4.288 23.1549C6.11067 23.7851 7.02133 24.1002 7.94 23.9717L8 23.9634V4.61523C7.8498 4.63841 7.69844 4.65272 7.54667 4.65807C6.82667 4.68433 6.11467 4.43695 4.692 3.94633C2.828 3.30231 1.896 2.98031 1.18667 3.30784C0.935297 3.42376 0.709706 3.59219 0.524 3.8026C-1.58946e-07 4.39825 0 5.41541 0 7.45249ZM24 16.5461V5.31452C24 3.87309 24 3.15168 23.6227 2.60855C23.2453 2.06542 22.5853 1.83738 21.2653 1.38132L19.712 0.845099C17.8893 0.214902 16.9787 -0.100196 16.06 0.0283312L16 0.035241V19.3834C16.1507 19.3599 16.3027 19.3461 16.4533 19.3406C17.1733 19.3143 17.8853 19.5617 19.308 20.0523C21.172 20.6963 22.104 21.0183 22.8133 20.6908C23.0647 20.5749 23.2903 20.4064 23.476 20.196C24 19.6004 24 18.5832 24 16.5461Z" fill="#00A3FF"/>
<path d="M8.33932 4.52859C8.2269 4.55377 8.11374 4.5755 8 4.59374V24C8.92044 23.8558 9.74333 23.3028 11.3548 22.2188L13.2533 20.9407C14.5392 20.0758 15.1821 19.6433 15.9048 19.4714C16.0147 19.4437 16.1287 19.4229 16.2427 19.4063V0C15.3223 0.142775 14.4994 0.697239 12.8879 1.77983L10.9894 3.05787C9.70349 3.92284 9.06056 4.35532 8.33795 4.5272" fill="#00A3FF"/>
<path d="M6.272 14.024H4.144L3.768 15H1.848L4.296 9.4H6.152L8.6 15H6.648L6.272 14.024ZM5.752 12.664L5.208 11.256L4.664 12.664H5.752ZM8.90131 9.4H11.6613C12.2853 9.4 12.8346 9.51467 13.3093 9.744C13.7893 9.968 14.16 10.2907 14.4213 10.712C14.688 11.1333 14.8213 11.6293 14.8213 12.2C14.8213 12.7707 14.688 13.2667 14.4213 13.688C14.16 14.1093 13.7893 14.4347 13.3093 14.664C12.8346 14.888 12.2853 15 11.6613 15H8.90131V9.4ZM11.5813 13.528C11.9866 13.528 12.3093 13.4133 12.5493 13.184C12.7946 12.9493 12.9173 12.6213 12.9173 12.2C12.9173 11.7787 12.7946 11.4533 12.5493 11.224C12.3093 10.9893 11.9866 10.872 11.5813 10.872H10.7893V13.528H11.5813ZM17.5987 15.128C17.1347 15.128 16.6814 15.0773 16.2387 14.976C15.8014 14.8693 15.4414 14.728 15.1587 14.552L15.7667 13.176C16.0334 13.3307 16.332 13.456 16.6627 13.552C16.9934 13.6427 17.3107 13.688 17.6147 13.688C17.876 13.688 18.0627 13.664 18.1747 13.616C18.2867 13.5627 18.3427 13.4853 18.3427 13.384C18.3427 13.2667 18.268 13.1787 18.1187 13.12C17.9747 13.0613 17.7347 12.9973 17.3987 12.928C16.9667 12.8373 16.6067 12.7413 16.3187 12.64C16.0307 12.5333 15.78 12.3627 15.5667 12.128C15.3534 11.888 15.2467 11.5653 15.2467 11.16C15.2467 10.808 15.3454 10.488 15.5427 10.2C15.74 9.912 16.0334 9.68533 16.4227 9.52C16.8174 9.35467 17.2947 9.272 17.8547 9.272C18.2387 9.272 18.6147 9.31467 18.9827 9.4C19.356 9.48 19.684 9.6 19.9667 9.76L19.3987 11.128C18.8494 10.8507 18.3294 10.712 17.8387 10.712C17.3534 10.712 17.1107 10.8293 17.1107 11.064C17.1107 11.176 17.1827 11.2613 17.3267 11.32C17.4707 11.3733 17.708 11.432 18.0387 11.496C18.4654 11.576 18.8254 11.6693 19.1187 11.776C19.412 11.8773 19.6654 12.0453 19.8787 12.28C20.0974 12.5147 20.2067 12.8347 20.2067 13.24C20.2067 13.592 20.108 13.912 19.9107 14.2C19.7134 14.4827 19.4174 14.7093 19.0227 14.88C18.6334 15.0453 18.1587 15.128 17.5987 15.128Z" fill="white"/>
</g>
<defs>
<clipPath id="clip0_100_184">
<rect width="24" height="24" fill="white"/>
</clipPath>
</defs>
</svg>
